<svg width="1000" height="433" viewBox="0 0 1000 433" fill="none" xmlns="http://www.w3.org/2000/svg">
<rect width="1000" height="433" fill="#E5E5E5"/>
<g clip-path="url(#clip0)">
<rect width="1000" height="433" fill="white"/>
<path d="M-1.99997 0L8.00003 432H1000V56C1000 56 492 202 324 110C156 18 9.296 3.14866 -1.99997 0Z" fill="#08A9F2" stroke="#08A9F2"/>
<g filter="url(#filter0_d)">
<path d="M-2 109C-2 109 238 153 588 81C938 9.00001 998 153 998 153V433H-2V109Z" fill="#0392E6"/>
<path d="M-2 109C-2 109 238 153 588 81C938 9.00001 998 153 998 153V433H-2V109Z" stroke="#0392E6"/>
</g>
</g>
<defs>
<filter id="filter0_d" x="-5.5" y="48.34" width="1025" height="397.16" filterUnits="userSpaceOnUse" color-interpolation-filters="sRGB">
<feFlood flood-opacity="0" result="BackgroundImageFix"/>
<feColorMatrix in="SourceAlpha" type="matrix" values="0 0 0 0 0 0 0 0 0 0 0 0 0 0 0 0 0 0 127 0"/>
<feOffset dx="9"/>
<feGaussianBlur stdDeviation="6"/>
<feColorMatrix type="matrix" values="0 0 0 0 0 0 0 0 0 0 0 0 0 0 0 0 0 0 0.25 0"/>
<feBlend mode="normal" in2="BackgroundImageFix" result="effect1_dropShadow"/>
<feBlend mode="normal" in="SourceGraphic" in2="effect1_dropShadow" result="shape"/>
</filter>
<clipPath id="clip0">
<rect width="1000" height="433" fill="white"/>
</clipPath>
</defs>
</svg>
