<svg width="138" height="76" viewBox="0 0 138 76" fill="none" xmlns="http://www.w3.org/2000/svg">
<rect width="138" height="76" fill="#E5E5E5"/>
<g clip-path="url(#clip0)">
<rect width="138" height="76" fill="#555555"/>
<path d="M-1 0H138V76H-1V0Z" fill="white"/>
<path d="M78.528 5.52V24H75.756L68.028 11.624L66.068 8.152H66.04L66.152 10.952V24H64.024V5.52H66.796L74.496 17.84L76.484 21.396H76.512L76.4 18.568V5.52H78.528ZM89.7998 24.28C88.4744 24.28 87.2891 23.9907 86.2438 23.412C85.2171 22.8333 84.4144 22.0027 83.8358 20.92C83.2571 19.8187 82.9678 18.512 82.9678 17C82.9678 15.488 83.2571 14.1907 83.8358 13.108C84.4144 12.0067 85.2078 11.1667 86.2158 10.588C87.2238 10.0093 88.3718 9.72 89.6598 9.72C90.9664 9.72 92.0771 10 92.9918 10.56C93.9251 11.12 94.6344 11.8853 95.1198 12.856C95.6051 13.808 95.8478 14.8813 95.8478 16.076C95.8478 16.3933 95.8384 16.6827 95.8198 16.944C95.8011 17.2053 95.7731 17.4387 95.7357 17.644H85.1798C85.2918 19.1187 85.7491 20.2667 86.5518 21.088C87.3544 21.9093 88.4184 22.32 89.7438 22.32C90.7704 22.32 91.6011 22.124 92.2358 21.732C92.8891 21.34 93.4118 20.808 93.8038 20.136L95.5678 21.172C95.0451 22.124 94.2891 22.88 93.2998 23.44C92.3291 24 91.1624 24.28 89.7998 24.28ZM89.6038 11.68C88.4278 11.68 87.4571 12.0347 86.6918 12.744C85.9451 13.4347 85.4691 14.4053 85.2638 15.656H93.6078C93.5518 14.3867 93.1598 13.4067 92.4318 12.716C91.7038 12.0253 90.7611 11.68 89.6038 11.68Z" fill="#6C63FF"/>
<path d="M78.016 31.52V33.62H71.576V50H69.336V33.62H62.896V31.52H78.016ZM82.1849 33.312C81.6809 33.312 81.2703 33.1627 80.9529 32.864C80.6543 32.5467 80.5049 32.136 80.5049 31.632C80.5049 31.128 80.6543 30.7267 80.9529 30.428C81.2703 30.1107 81.6809 29.952 82.1849 29.952C82.6889 29.952 83.0903 30.1107 83.3889 30.428C83.7063 30.7267 83.8649 31.128 83.8649 31.632C83.8649 32.136 83.7063 32.5467 83.3889 32.864C83.0903 33.1627 82.6889 33.312 82.1849 33.312ZM83.3049 36V50H81.0649V36H83.3049ZM88.5024 50V36H90.4624L90.6024 38.184C91.1064 37.3253 91.7598 36.7 92.5624 36.308C93.3838 35.916 94.2238 35.72 95.0824 35.72C96.0718 35.72 97.0051 35.944 97.8824 36.392C98.7598 36.84 99.4318 37.5307 99.8984 38.464C100.197 37.8293 100.617 37.316 101.158 36.924C101.7 36.5133 102.288 36.2147 102.922 36.028C103.576 35.8227 104.192 35.72 104.77 35.72C105.666 35.72 106.516 35.9067 107.318 36.28C108.14 36.6533 108.812 37.232 109.334 38.016C109.857 38.8 110.118 39.808 110.118 41.04V50H107.878V41.264C107.878 39.9947 107.561 39.08 106.926 38.52C106.292 37.96 105.508 37.68 104.574 37.68C103.846 37.68 103.165 37.8573 102.53 38.212C101.896 38.5667 101.382 39.0893 100.99 39.78C100.617 40.4707 100.43 41.32 100.43 42.328V50H98.1904V41.264C98.1904 39.9947 97.8731 39.08 97.2384 38.52C96.6038 37.96 95.8198 37.68 94.8864 37.68C94.2704 37.68 93.6358 37.848 92.9824 38.184C92.3478 38.5013 91.8158 39.0147 91.3864 39.724C90.9571 40.4333 90.7424 41.3667 90.7424 42.524V50H88.5024ZM121.042 50.28C119.717 50.28 118.531 49.9907 117.486 49.412C116.459 48.8333 115.657 48.0027 115.078 46.92C114.499 45.8187 114.21 44.512 114.21 43C114.21 41.488 114.499 40.1907 115.078 39.108C115.657 38.0067 116.45 37.1667 117.458 36.588C118.466 36.0093 119.614 35.72 120.902 35.72C122.209 35.72 123.319 36 124.234 36.56C125.167 37.12 125.877 37.8853 126.362 38.856C126.847 39.808 127.09 40.8813 127.09 42.076C127.09 42.3933 127.081 42.6827 127.062 42.944C127.043 43.2053 127.015 43.4387 126.978 43.644H116.422C116.534 45.1187 116.991 46.2667 117.794 47.088C118.597 47.9093 119.661 48.32 120.986 48.32C122.013 48.32 122.843 48.124 123.478 47.732C124.131 47.34 124.654 46.808 125.046 46.136L126.81 47.172C126.287 48.124 125.531 48.88 124.542 49.44C123.571 50 122.405 50.28 121.042 50.28ZM120.846 37.68C119.67 37.68 118.699 38.0347 117.934 38.744C117.187 39.4347 116.711 40.4053 116.506 41.656H124.85C124.794 40.3867 124.402 39.4067 123.674 38.716C122.946 38.0253 122.003 37.68 120.846 37.68Z" fill="#6C63FF"/>
<line x1="52.5" y1="2.18557e-08" x2="52.5" y2="58" stroke="#2F2E41"/>
<line y1="57.5" x2="138" y2="57.5" stroke="#2F2E41"/>
<path d="M21.073 63.395H16.419L15.769 66.164H19.643L19.422 67.139H15.548L14.651 71H13.611L15.6 62.42H21.307L21.073 63.395ZM23.4385 63.252C23.2305 63.252 23.0615 63.1913 22.9315 63.07C22.8015 62.94 22.7365 62.7753 22.7365 62.576C22.7365 62.3073 22.8145 62.095 22.9705 61.939C23.1352 61.7743 23.3302 61.692 23.5555 61.692C23.7635 61.692 23.9325 61.757 24.0625 61.887C24.1925 62.0083 24.2575 62.1687 24.2575 62.368C24.2575 62.6367 24.1752 62.8533 24.0105 63.018C23.8545 63.174 23.6638 63.252 23.4385 63.252ZM23.5555 64.5L22.0475 71H21.0075L22.5155 64.5H23.5555ZM24.3591 71L25.8671 64.5H26.7771L26.6211 65.449C26.8464 65.085 27.1584 64.8163 27.5571 64.643C27.9557 64.461 28.3804 64.37 28.8311 64.37C29.3337 64.37 29.7584 64.4783 30.1051 64.695C30.4517 64.9117 30.6944 65.2237 30.8331 65.631C30.9804 66.0297 30.9891 66.515 30.8591 67.087L29.9491 71H28.9091L29.8191 67.074C29.9491 66.5107 29.8927 66.073 29.6501 65.761C29.4161 65.4403 29.0434 65.28 28.5321 65.28C27.9254 65.28 27.4271 65.4793 27.0371 65.878C26.6471 66.268 26.3654 66.8357 26.1921 67.581L25.3991 71H24.3591ZM35.2755 71.117C34.6775 71.117 34.1618 70.987 33.7285 70.727C33.3038 70.467 32.9788 70.116 32.7535 69.674C32.5282 69.232 32.4155 68.738 32.4155 68.192C32.4155 67.516 32.5498 66.8877 32.8185 66.307C33.0872 65.7263 33.4772 65.2627 33.9885 64.916C34.5085 64.5607 35.1368 64.383 35.8735 64.383C36.4022 64.383 36.8528 64.4913 37.2255 64.708C37.6068 64.9247 37.8972 65.2237 38.0965 65.605C38.2958 65.9777 38.3955 66.4023 38.3955 66.879C38.3955 67.217 38.3348 67.5897 38.2135 67.997H33.4685C33.4685 68.075 33.4685 68.153 33.4685 68.231C33.4685 68.8117 33.6418 69.2883 33.9885 69.661C34.3438 70.0337 34.8118 70.22 35.3925 70.22C35.8345 70.2113 36.1985 70.116 36.4845 69.934C36.7705 69.752 37.0045 69.5137 37.1865 69.219L38.0055 69.765C37.7195 70.181 37.3468 70.5103 36.8875 70.753C36.4282 70.9957 35.8908 71.117 35.2755 71.117ZM35.8085 65.28C35.1845 65.28 34.6948 65.4577 34.3395 65.813C33.9928 66.1683 33.7502 66.593 33.6115 67.087H37.3685C37.3772 67.0003 37.3815 66.918 37.3815 66.84C37.3815 66.372 37.2428 65.995 36.9655 65.709C36.6882 65.423 36.3025 65.28 35.8085 65.28ZM46.3093 62.42L46.0753 63.395H43.1763L41.4213 71H40.3813L42.1363 63.395H39.1853L39.4193 62.42H46.3093ZM47.8946 71.117C47.2966 71.117 46.781 70.987 46.3476 70.727C45.923 70.467 45.598 70.116 45.3726 69.674C45.1473 69.232 45.0346 68.738 45.0346 68.192C45.0346 67.516 45.169 66.8877 45.4376 66.307C45.7063 65.7263 46.0963 65.2627 46.6076 64.916C47.1276 64.5607 47.756 64.383 48.4926 64.383C49.0213 64.383 49.472 64.4913 49.8446 64.708C50.226 64.9247 50.5163 65.2237 50.7156 65.605C50.915 65.9777 51.0146 66.4023 51.0146 66.879C51.0146 67.217 50.954 67.5897 50.8326 67.997H46.0876C46.0876 68.075 46.0876 68.153 46.0876 68.231C46.0876 68.8117 46.261 69.2883 46.6076 69.661C46.963 70.0337 47.431 70.22 48.0116 70.22C48.4536 70.2113 48.8176 70.116 49.1036 69.934C49.3896 69.752 49.6236 69.5137 49.8056 69.219L50.6246 69.765C50.3386 70.181 49.966 70.5103 49.5066 70.753C49.0473 70.9957 48.51 71.117 47.8946 71.117ZM48.4276 65.28C47.8036 65.28 47.314 65.4577 46.9586 65.813C46.612 66.1683 46.3693 66.593 46.2306 67.087H49.9876C49.9963 67.0003 50.0006 66.918 50.0006 66.84C50.0006 66.372 49.862 65.995 49.5846 65.709C49.3073 65.423 48.9216 65.28 48.4276 65.28ZM55.2836 71.117C54.6856 71.117 54.17 70.987 53.7366 70.727C53.312 70.4583 52.987 70.103 52.7616 69.661C52.5363 69.2103 52.4236 68.7163 52.4236 68.179C52.4236 67.4337 52.5666 66.7793 52.8526 66.216C53.1386 65.644 53.5373 65.1977 54.0486 64.877C54.56 64.5477 55.1536 64.383 55.8296 64.383C56.5663 64.383 57.1643 64.5737 57.6236 64.955C58.083 65.3363 58.369 65.813 58.4816 66.385L57.3896 66.645C57.355 66.2637 57.2033 65.943 56.9346 65.683C56.6746 65.4143 56.289 65.28 55.7776 65.28C55.3356 65.28 54.9413 65.4013 54.5946 65.644C54.248 65.8867 53.975 66.2247 53.7756 66.658C53.5763 67.0827 53.4766 67.5853 53.4766 68.166C53.4766 68.738 53.637 69.2233 53.9576 69.622C54.287 70.0207 54.7636 70.22 55.3876 70.22C55.7256 70.22 56.042 70.1333 56.3366 69.96C56.64 69.7867 56.8523 69.531 56.9736 69.193L57.9876 69.557C57.7623 70.0597 57.407 70.4453 56.9216 70.714C56.445 70.9827 55.899 71.117 55.2836 71.117ZM59.0807 71L61.2777 61.51H62.3177L61.4467 65.293C61.6894 64.981 61.9971 64.7513 62.3697 64.604C62.7424 64.448 63.1367 64.37 63.5527 64.37C64.0381 64.37 64.4541 64.4783 64.8007 64.695C65.1561 64.9117 65.4074 65.2237 65.5547 65.631C65.7021 66.0297 65.7107 66.515 65.5807 67.087L64.6707 71H63.6307L64.5407 67.074C64.6707 66.5107 64.6144 66.073 64.3717 65.761C64.1377 65.4403 63.7651 65.28 63.2537 65.28C62.6471 65.28 62.1487 65.4793 61.7587 65.878C61.3687 66.268 61.0871 66.8357 60.9137 67.581L60.1207 71H59.0807ZM69.8643 71L75.0903 62.42H76.3773L77.6253 71H76.5983L76.2343 68.543H72.5033L71.0343 71H69.8643ZM74.7653 64.786L73.1013 67.568H76.1043L75.7013 64.838L75.5193 63.538L74.7653 64.786ZM79.0759 71L80.5839 64.5H81.4939L81.3379 65.449C81.5632 65.085 81.8752 64.8163 82.2739 64.643C82.6725 64.461 83.0972 64.37 83.5479 64.37C84.0505 64.37 84.4752 64.4783 84.8219 64.695C85.1685 64.9117 85.4112 65.2237 85.5499 65.631C85.6972 66.0297 85.7059 66.515 85.5759 67.087L84.6659 71H83.6259L84.5359 67.074C84.6659 66.5107 84.6095 66.073 84.3669 65.761C84.1329 65.4403 83.7602 65.28 83.2489 65.28C82.6422 65.28 82.1439 65.4793 81.7539 65.878C81.3639 66.268 81.0822 66.8357 80.9089 67.581L80.1159 71H79.0759ZM86.446 73.795C86.1167 73.795 85.835 73.756 85.601 73.678C85.3584 73.6 85.159 73.4917 85.003 73.353L85.419 72.482C85.7137 72.7507 86.043 72.885 86.407 72.885C86.6844 72.885 86.927 72.807 87.135 72.651C87.3517 72.495 87.564 72.2523 87.772 71.923L88.383 70.948L87.239 64.5H88.266L88.864 68.218L89.124 69.843L90.034 68.322L92.335 64.5H93.518L88.604 72.274C88.266 72.8027 87.915 73.1883 87.551 73.431C87.1957 73.6737 86.8274 73.795 86.446 73.795ZM95.8958 71.104C95.2718 71.104 94.7908 70.922 94.4528 70.558C94.1148 70.194 94.0195 69.6827 94.1668 69.024L94.9988 65.397H93.6858L93.8938 64.5H95.2068L95.5318 63.07L96.6628 62.745L96.2468 64.5H98.2618L98.0538 65.397H96.0388L95.1808 69.076C95.0942 69.4747 95.1462 69.7607 95.3368 69.934C95.5362 70.0987 95.7832 70.181 96.0778 70.181C96.2945 70.181 96.4852 70.1507 96.6498 70.09C96.8145 70.0293 96.9575 69.9513 97.0788 69.856L97.2868 70.714C97.0702 70.8613 96.8492 70.961 96.6238 71.013C96.3985 71.0737 96.1558 71.104 95.8958 71.104ZM100.905 63.252C100.697 63.252 100.528 63.1913 100.398 63.07C100.268 62.94 100.203 62.7753 100.203 62.576C100.203 62.3073 100.281 62.095 100.437 61.939C100.602 61.7743 100.797 61.692 101.022 61.692C101.23 61.692 101.399 61.757 101.529 61.887C101.659 62.0083 101.724 62.1687 101.724 62.368C101.724 62.6367 101.642 62.8533 101.477 63.018C101.321 63.174 101.131 63.252 100.905 63.252ZM101.022 64.5L99.5143 71H98.4743L99.9823 64.5H101.022ZM101.826 71L103.334 64.5H104.244L104.088 65.436C104.313 65.0807 104.621 64.8163 105.011 64.643C105.401 64.461 105.821 64.37 106.272 64.37C106.749 64.37 107.156 64.487 107.494 64.721C107.841 64.9463 108.075 65.2713 108.196 65.696C108.473 65.254 108.833 64.9247 109.275 64.708C109.717 64.4827 110.185 64.37 110.679 64.37C111.147 64.37 111.546 64.4783 111.875 64.695C112.213 64.9117 112.451 65.2237 112.59 65.631C112.729 66.0383 112.729 66.5323 112.59 67.113L111.693 71H110.653L111.55 67.1C111.68 66.528 111.637 66.0817 111.42 65.761C111.203 65.4403 110.857 65.28 110.38 65.28C109.817 65.28 109.349 65.4533 108.976 65.8C108.603 66.1467 108.326 66.645 108.144 67.295L107.273 71H106.233L107.143 67.1C107.282 66.528 107.238 66.0817 107.013 65.761C106.796 65.4403 106.45 65.28 105.973 65.28C105.366 65.28 104.872 65.4793 104.491 65.878C104.11 66.268 103.832 66.8357 103.659 67.581L102.866 71H101.826ZM117.084 71.117C116.486 71.117 115.97 70.987 115.537 70.727C115.112 70.467 114.787 70.116 114.562 69.674C114.337 69.232 114.224 68.738 114.224 68.192C114.224 67.516 114.358 66.8877 114.627 66.307C114.896 65.7263 115.286 65.2627 115.797 64.916C116.317 64.5607 116.945 64.383 117.682 64.383C118.211 64.383 118.661 64.4913 119.034 64.708C119.415 64.9247 119.706 65.2237 119.905 65.605C120.104 65.9777 120.204 66.4023 120.204 66.879C120.204 67.217 120.143 67.5897 120.022 67.997H115.277C115.277 68.075 115.277 68.153 115.277 68.231C115.277 68.8117 115.45 69.2883 115.797 69.661C116.152 70.0337 116.62 70.22 117.201 70.22C117.643 70.2113 118.007 70.116 118.293 69.934C118.579 69.752 118.813 69.5137 118.995 69.219L119.814 69.765C119.528 70.181 119.155 70.5103 118.696 70.753C118.237 70.9957 117.699 71.117 117.084 71.117ZM117.617 65.28C116.993 65.28 116.503 65.4577 116.148 65.813C115.801 66.1683 115.559 66.593 115.42 67.087H119.177C119.186 67.0003 119.19 66.918 119.19 66.84C119.19 66.372 119.051 65.995 118.774 65.709C118.497 65.423 118.111 65.28 117.617 65.28Z" fill="#2F2E41"/>
<path d="M36.2594 49.4836H21.2192C20.5179 49.4836 19.9724 48.9381 19.9724 48.2368C19.9724 46.2886 19.0372 45.1976 17.6345 43.4831C16.8552 42.548 15.998 41.457 15.1408 40.1322C12.8029 36.3137 10.6989 31.9497 10.2313 30.2353C9.76373 28.5208 10.0754 27.5078 10.543 26.8844C11.0885 26.1051 12.0237 25.7154 13.1147 25.7154C14.5953 25.7154 16.1539 26.9623 17.4787 28.5988V15.7406C17.4787 13.6365 19.1931 12 21.2192 12C23.2454 12 24.9598 13.7144 24.9598 15.7406V20.9618C25.3494 20.8059 25.7391 20.728 26.2066 20.728C27.5314 20.728 28.7004 21.4294 29.4017 22.4424C29.9472 22.1307 30.5706 21.9748 31.272 21.9748C32.9864 21.9748 34.4671 23.1438 34.8567 24.7023C35.2464 24.5465 35.7139 24.4686 36.2594 24.4686C38.3635 24.4686 40 26.183 40 28.2091V31.9497C40 35.1448 39.3766 37.7943 38.7532 40.2881C38.1297 42.8597 37.5063 45.1976 37.5063 48.1588C37.5063 48.8602 36.9608 49.4836 36.2594 49.4836ZM22.4661 46.9899H35.0905C35.2464 44.2624 35.7919 42.0025 36.3374 39.7426C36.9608 37.2489 37.5063 34.8331 37.5063 31.9497V27.9754C37.5063 27.274 36.9608 26.7285 36.2594 26.7285C35.5581 26.7285 35.0126 27.274 35.0126 27.9754V29.456C35.0126 30.1573 34.4671 30.7029 33.7657 30.7029C33.0644 30.7029 32.5189 30.1573 32.5189 29.456V25.4816C32.5189 24.7803 31.9734 24.2348 31.272 24.2348C30.5706 24.2348 30.0251 24.7803 30.0251 25.4816V28.2091C30.0251 28.9105 29.4797 29.456 28.7783 29.456C28.0769 29.456 27.5314 28.9105 27.5314 28.2091V24.2348C27.5314 23.5334 26.9859 22.9879 26.2846 22.9879C25.5832 22.9879 25.0377 23.5334 25.0377 24.2348V26.9623C25.0377 27.6636 24.4922 28.2091 23.7909 28.2091C23.0895 28.2091 22.544 27.6636 22.544 26.9623V15.4289C22.544 14.7275 21.9985 14.182 21.2971 14.182C20.5958 14.182 20.0503 14.7275 20.0503 15.4289V34.4434C20.0503 35.1448 19.5048 35.6903 18.8034 35.6903C18.1021 35.6903 17.5566 35.1448 17.5566 34.4434V33.4304C16.4656 30.547 13.9719 28.0533 13.1926 28.0533C12.8809 28.0533 12.725 28.1312 12.6471 28.365C12.5692 28.5209 12.4912 28.9105 12.6471 29.456C13.0367 30.7808 14.9849 34.8331 17.4007 38.8074C18.18 40.0543 18.9593 40.9894 19.7386 41.9246C20.9854 43.4831 22.0764 44.8858 22.4661 46.9899Z" fill="#6C63FF"/>
<g clip-path="url(#clip1)">
<path d="M15.3264 19.5581C15.5797 19.7616 15.9093 19.8634 16.2434 19.8413C16.5775 19.8191 16.8888 19.6748 17.1094 19.4398C17.33 19.2049 17.442 18.8984 17.4208 18.5872C17.3997 18.2761 17.2471 17.9857 16.9965 17.7793C16.325 17.2456 15.7839 16.5843 15.4094 15.8397C15.0349 15.0951 14.8355 14.2843 14.8247 13.4616C14.804 11.8967 15.4518 10.387 16.6257 9.26471C17.7996 8.14241 19.4035 7.4994 21.0844 7.47714C22.7653 7.45487 24.3856 8.05517 25.5888 9.14598C26.792 10.2368 27.4796 11.7287 27.5004 13.2936C27.5114 14.1164 27.3336 14.9321 26.9789 15.6864C26.6242 16.4407 26.1008 17.1161 25.4437 17.6675C25.1986 17.8804 25.0538 18.1748 25.0409 18.4864C25.028 18.7979 25.148 19.1014 25.3748 19.3304C25.6015 19.5594 25.9166 19.6954 26.2511 19.7088C26.5857 19.7221 26.9125 19.6116 27.1603 19.4014C28.4846 18.2682 29.4088 16.7879 29.8108 15.1566C30.2128 13.5252 30.0735 11.8197 29.4115 10.2655C28.7494 8.7113 27.5958 7.38177 26.1031 6.4528C24.6105 5.52382 22.8492 5.03918 21.0524 5.06298C19.2555 5.08679 17.5077 5.61792 16.0402 6.58611C14.5727 7.5543 13.4547 8.91392 12.834 10.4851C12.2134 12.0563 12.1194 13.7649 12.5644 15.3851C13.0095 17.0052 13.9726 18.4604 15.3264 19.5582L15.3264 19.5581Z" fill="#2F2E41"/>
</g>
</g>
<defs>
<clipPath id="clip0">
<rect width="138" height="76" fill="white"/>
</clipPath>
<clipPath id="clip1">
<rect width="18.8832" height="18.8832" fill="white" transform="translate(31.1316 23.8815) rotate(179.241)"/>
</clipPath>
</defs>
</svg>
