<svg width="440" height="272" viewBox="0 0 440 272" fill="none" xmlns="http://www.w3.org/2000/svg">
<rect width="440" height="272" fill="#E5E5E5"/>
<rect width="440" height="272" fill="white"/>
<path opacity="0.1" d="M26.8429 148.67C39.1338 164.29 34.3588 187.105 26.5498 205.381C23.9331 211.501 20.9784 217.972 22.0679 224.533C23.4159 232.555 30.5801 238.423 38.1029 241.531C51.8142 247.199 68.2251 245.848 80.8262 238.013C91.7139 231.242 99.5125 220.232 110.586 213.772C129.121 202.959 152.71 207.042 172.834 214.492C187.073 219.76 202.639 226.614 216.784 221.108C226.738 217.231 233.619 207.8 237.37 197.8C239.18 192.976 240.494 187.749 243.952 183.921C246.021 181.646 248.689 180.03 251.437 178.669C276.525 166.237 308.209 172.894 332.577 159.108C349.033 149.804 359.569 132.23 364.234 113.913C368.898 95.5947 368.371 76.3879 367.171 57.5256C366.33 44.1181 364.82 29.8077 356.249 19.46C347.182 8.51614 331.622 4.44322 317.559 6.52447C303.496 8.60573 290.747 16.0211 279.532 24.7527C265.517 35.669 252.516 49.2592 235.309 53.6973C223.587 56.709 211.261 55.0757 199.174 54.4899C178.967 53.5354 158.754 55.658 138.657 57.977C119.419 60.1996 100.043 62.6461 81.7157 68.9002C68.7491 73.3108 58.3579 81.3464 46.1118 86.9458C38.1305 90.6052 29.4252 91.6148 21.8645 96.277C12.5558 102.018 4.01942 112.004 6.4052 123.688C8.67375 134.808 20.3199 140.38 26.8429 148.67Z" fill="#6C63FF"/>
</svg>
